# AST/ASF file generated using VICON BodyLanguage
# -----------------------------------------------
:version 1.10
:name VICON
:units
  mass 1.0
  length 0.45
  angle deg
:documentation
   .ast/.asf automatically generated from VICON data using
   VICON BodyBuilder and BodyLanguage model FoxedUp or BRILLIANT.MOD
:root
   order TX TY TZ RX RY RZ
   axis XYZ
   position 0 0 0  
   orientation 0 -0 0 
:bonedata
  begin
     id 1 
     name lhipjoint
     direction 0.500677 -0.737119 0.453848 
     length 2.34727 
     axis 0 -0 0  XYZ
  end
  begin
     id 2 
     name lfemur
     direction 0.34202 -0.939693 0  
     length 7.53653  
     axis 0 -0 20  XYZ
    dof rx ry rz
    limits (-160.0 20.0)
           (-70.0 70.0)
           (-60.0 70.0)
  end
  begin
     id 3 
     name ltibia
     direction 0.34202 -0.939693 0   
     length 6.85572   
     axis 0 -0 20   XYZ
    dof rx
    limits (-10.0 170.0)
  end
  begin
     id 4 
     name lfoot
     direction 0.155313 -0.426718 0.890949   
     length 2.18324   
     axis -90 -1.13533e-015 20   XYZ
    dof rx rz
    limits (-45.0 90.0)
           (-70.0 20.0)
  end
  begin
     id 5 
     name ltoes
     direction 1.53474e-011 -4.21647e-011 1   
     length 1.06748   
     axis -90 -1.13533e-015 20   XYZ
    dof rx
    limits (-90.0 20.0)
  end
  begin
     id 6 
     name rhipjoint
     direction -0.632471 -0.659587 0.406111   
     length 2.62319  
     axis 0 -0 0  XYZ 
  end
  begin
     id 7 
     name rfemur
     direction -0.34202 -0.939693 0   
     length 7.21735   
     axis 0 -0 -20   XYZ
    dof rx ry rz
    limits (-160.0 20.0)
           (-70.0 70.0)
           (-70.0 60.0)
  end
  begin
     id 8 
     name rtibia
     direction -0.34202 -0.939693 0   
     length 7.02558   
     axis 0 -0 -20   XYZ
    dof rx
    limits (-10.0 170.0)
 end
 begin
     id 9 
     name rfoot
     direction -0.16057 -0.441164 0.882945   
     length 2.10014  
     axis -90 1.13533e-015 -20   XYZ
    dof rx rz
    limits (-45.0 90.0)
           (-20.0 70.0)
  end
  begin
     id 10 
     name rtoes
     direction -1.53553e-011 -4.2192e-011 1   
     length 1.02554   
     axis -90 1.13533e-015 -20   XYZ
    dof rx
    limits (-90.0 20.0)
  end
  begin
     id 11 
     name lowerback
     direction 0.0401429 0.998861 -0.0258085   
     length 1.80848   
     axis 0 -0 0   XYZ
    dof rx ry rz
    limits (-20.0 45.0)
           (-30.0 30.0)
           (-30.0 30.0)
  end
  begin
     id 12 
     name upperback
     direction -0.0130978 0.999914 -0.000352645   
     length 1.8116   
     axis 0 -0 0   XYZ
    dof rx ry rz
    limits (-20.0 45.0)
           (-30.0 30.0)
           (-30.0 30.0)
  end
  begin
     id 13 
     name thorax
     direction -0.0300198 0.999453 0.0138573   
     length 1.81778   
     axis 0 -0 0   XYZ
    dof rx ry rz
    limits (-20.0 45.0)
           (-30.0 30.0)
           (-30.0 30.0)
  end
  begin
     id 14 
     name lowerneck
     direction -0.0401726 0.999191 -0.00173647   
     length 2.10594   
     axis 0 -0 0   XYZ
    dof rx ry rz
    limits (-20.0 45.0)
           (-30.0 30.0)
           (-30.0 30.0)
  end
  begin
     id 15 
     name upperneck
     direction 0.0119835 0.998501 0.0534085   
     length 2.07325   
     axis 0 -0 0   XYZ
    dof rx ry rz
    limits (-20.0 45.0)
           (-30.0 30.0)
           (-30.0 30.0)
  end
  begin
     id 16
     name head
     direction 0.00628309 0.999826 0.0175921  
     length 2.15096  
     axis 0 -0 0   XYZ
    dof rx ry rz
    limits (-20.0 45.0)
           (-30.0 30.0)
           (-30.0 30.0)
  end
  begin
     id 17 
     name lclavicle
     direction 0.895501 0.429681 -0.115981  
     length 4.18092  
     axis 0 -0 0   XYZ
    dof ry rz
    limits (-20.0 10.0)
           (0.0 20.0)
  end
  begin
     id 18 
     name lhumerus
     direction 1 -4.48961e-011 -3.38433e-028   
     length 5.77237   
     axis 180 -30 -90   XYZ
    dof rx ry rz
    limits (-60.0 90.0)
           (-90.0 90.0)
           (-90.0 90.0)
  end
  begin
     id 19
     name lradius
     direction 1 -4.4901e-011 1.11983e-026   
     length 2.91878   
     axis 180 -30 -90   XYZ
    dof rx
    limits (-10.0 170.0)
  end
  begin
     id 20
     name lwrist
     direction 1 -4.48934e-011 1.88176e-026   
     length 1.45939   
     axis -1.23311e-014 90 90   XYZ
    dof ry
    limits (-180.0 0.0)
 end
  begin
     id 21 
     name lhand
     direction 1 -4.4895e-011 3.76352e-026   
     length 1.06566   
     axis -2.40147e-014 90 90   XYZ
    dof rx rz
    limits (-90.0 90.0)
           (-45.0 45.0)
  end
  begin
     id 22 
     name lfingers
     direction 1 -4.49005e-011 7.52705e-026   
     length 0.859162   
     axis -4.80295e-014 90 90   XYZ
    dof rx
    limits (0.0 90.0)
  end
  begin
     id 23
     name lthumb
     direction 0.707107 -6.34885e-011 0.707107   
     length 1.23359   
     axis -90 45 -9.86935e-015   XYZ
    dof rx rz
    limits (-45.0 45.0)
           (-45.0 45.0)
  end
  begin
     id 24 
     name rclavicle
     direction -0.91006 0.40451 -0.0903492   
     length 4.23293  
     axis 0 -0 0   XYZ 
    dof ry rz
    limits (-10.0 20.0)
           (-20.0 0.0)
  end
  begin
     id 25 
     name rhumerus
     direction -1 -4.4897e-011 1.7415e-027  
     length 5.49854   
     axis 180 30 90   XYZ
    dof rx ry rz
    limits (-90.0 60.0)
           (-90.0 90.0)
           (-90.0 90.0)
  end
  begin
     id 26 
     name rradius
     direction -1 -4.48963e-011 1.21259e-026   
     length 3.1186   
     axis 180 30 90   XYZ
    dof rx
    limits (-10.0 170.0)
  end
  begin
     id 27 
     name rwrist
     direction -1 -4.48967e-011 1.88176e-026   
     length 1.5593   
     axis -1.23311e-014 -90 -90   XYZ
    dof ry
    limits (-180.0 0.0)
  end
  begin
     id 28
     name rhand
     direction -1 -4.4895e-011 3.76352e-026   
     length 0.71207   
     axis -2.40147e-014 -90 -90   XYZ
    dof rx rz
    limits (-90.0 90.0)
           (-45.0 45.0)
  end
  begin
     id 29
     name rfingers
     direction -1 -4.49005e-011 7.52705e-026   
     length 0.574089   
     axis -4.80295e-014 -90 -90   XYZ
    dof rx
    limits (0.0 90.0)
  end
  begin
     id 30
     name rthumb
     direction -0.707107 -6.34982e-011 0.707107   
     length 0.824281   
     axis -90 -45 9.86935e-015   XYZ
    dof rx rz
    limits (-45.0 45.0)
           (-45.0 45.0)
  end
:hierarchy
  begin
    root lhipjoint rhipjoint lowerback
    lhipjoint lfemur
    lfemur ltibia
    ltibia lfoot
    lfoot ltoes
    rhipjoint rfemur
    rfemur rtibia
    rtibia rfoot
    rfoot rtoes
    lowerback upperback
    upperback thorax
    thorax lowerneck lclavicle rclavicle
    lowerneck upperneck
    upperneck head
    lclavicle lhumerus
    lhumerus lradius
    lradius lwrist
    lwrist lhand lthumb
    lhand lfingers
    rclavicle rhumerus
    rhumerus rradius
    rradius rwrist
    rwrist rhand rthumb
    rhand rfingers
  end

#!OML:ASF C:\ViconDB\ViconDB\414\Spring2016\042216\male.ASF
:FULLY-SPECIFIED
:DEGREES
729
root 14.0323 17.6365 13.6671 -177.852 34.1519 -178.669
lowerback -2.83445 -2.9651 2.66724
upperback -0.370056 -4.01803 -0.773616
thorax 0.967262 -1.99568 -2.42207
lowerneck -1.44801 2.08097 -7.07496
upperneck 3.62114 2.75013 8.98808
head 1.1857 1.45428 4.27485
rclavicle 3.88065e-014 -3.37934e-015
rhumerus -30.0396 8.18023 -98.8798
rradius 36.329
rwrist 23.9512
rhand 11.0124 -16.4697
rfingers 7.12502
rthumb 36.0859 -42.765
lclavicle 3.88065e-014 -3.37934e-015
lhumerus -35.8071 13.8539 87.1843
lradius 29.4311
lwrist -19.0841
lhand -5.49143 11.6051
lfingers 7.12502
lthumb 20.3212 40.5619
rfemur -2.75409 3.65976 19.8554
rtibia 28.7614
rfoot -17.1539 -11.9278
rtoes -15.157
lfemur -6.81419 5.296 -22.9303
ltibia 18.0035
lfoot -22.9536 6.78608
ltoes -10.127
730
root 14.0285 17.6259 13.6218 -177.937 33.6972 -178.677
lowerback -2.73402 -3.03173 2.63489
upperback -0.380709 -4.10269 -0.815855
thorax 0.894189 -2.03944 -2.44308
lowerneck -1.59886 1.95356 -7.31614
upperneck 3.85278 2.57905 9.19398
head 1.30038 1.37436 4.40446
rclavicle -3.52253e-014 -5.96354e-015
rhumerus -30.087 8.27023 -99.0794
rradius 36.1728
rwrist 23.4919
rhand 10.7766 -16.4421
rfingers 7.12502
rthumb 35.8626 -42.7923
lclavicle -3.52253e-014 -5.96354e-015
lhumerus -35.5211 13.4583 87.2643
lradius 29.343
lwrist -18.802
lhand -5.42954 11.6711
lfingers 7.12502
lthumb 20.3807 40.6216
rfemur -3.24848 3.61634 19.9108
rtibia 28.7123
rfoot -17.6344 -11.5296
rtoes -15.9484
lfemur -6.71833 5.46915 -23.0083
ltibia 18.2526
lfoot -23.2945 6.25792
ltoes -10.0531
731
root 14.0237 17.6129 13.5824 -177.968 33.1954 -178.625
lowerback -2.70983 -3.10352 2.62076
upperback -0.309541 -4.1991 -0.804084
thorax 0.949764 -2.08636 -2.42687
lowerneck -1.7984 1.88591 -7.14835
upperneck 4.09496 2.48566 9.13909
head 1.42695 1.33577 4.3593
rclavicle 1.79124e-014 -1.98785e-015
rhumerus -29.9378 8.10614 -99.0729
rradius 35.9146
rwrist 23.369
rhand 11.0116 -16.2847
rfingers 7.12502
rthumb 36.0852 -42.5802
lclavicle 1.79124e-014 -1.98785e-015
lhumerus -35.0928 13.2718 87.3755
lradius 29.3013
lwrist -18.8479
lhand -5.33833 11.7419
lfingers 7.12502
lthumb 20.4683 40.683
rfemur -3.78503 3.43177 20.0448
rtibia 28.5563
rfoot -17.9524 -11.1723
rtoes -16.5279
lfemur -6.68101 5.67413 -23.0222
ltibia 18.5129
lfoot -23.5714 5.69783
ltoes -10.215
732
root 14.017 17.609 13.5488 -177.831 32.6623 -178.468
lowerback -2.63923 -3.13623 2.8046
upperback -0.356681 -4.24496 -0.838876
thorax 0.843099 -2.11095 -2.55936
lowerneck -1.85881 1.83692 -7.09473
upperneck 4.279 2.41349 9.24019
head 1.50487 1.3071 4.38965
rclavicle 1.12133e-013 -1.98785e-015
rhumerus -29.9174 7.66575 -99.1326
rradius 35.6405
rwrist 22.9709
rhand 11.2713 -16.4066
rfingers 7.12502
rthumb 36.3311 -42.6411
lclavicle 1.12133e-013 -1.98785e-015
lhumerus -34.7755 12.6261 87.5529
lradius 29.3624
lwrist -18.4057
lhand -5.14724 11.8895
lfingers 7.12502
lthumb 20.6519 40.8108
rfemur -4.45407 3.66121 20.2847
rtibia 28.3575
rfoot -18.2975 -11.0985
rtoes -16.5274
lfemur -6.77789 5.84862 -22.9329
ltibia 18.7446
lfoot -23.7273 5.12092
ltoes -10.4877
733
root 14.0145 17.6035 13.5077 -177.817 32.2615 -178.422
lowerback -2.75688 -3.13851 2.80654
upperback -0.236967 -4.25355 -0.840426
thorax 1.03104 -2.11092 -2.57438
lowerneck -2.14106 1.73652 -7.31235
upperneck 4.42552 2.28694 9.52841
head 1.61372 1.25436 4.54652
rclavicle -8.75615e-014 -1.19271e-015
rhumerus -29.6894 7.36671 -99.0096
rradius 35.2678
rwrist 22.9037
rhand 11.5906 -16.5352
rfingers 7.12502
rthumb 36.6334 -42.6936
lclavicle -8.75615e-014 -1.19271e-015
lhumerus -34.3301 12.6675 87.6343
lradius 29.357
lwrist -18.2833
lhand -5.53857 11.6377
lfingers 7.12502
lthumb 20.2759 40.5993
rfemur -5.03029 4.11218 20.3748
rtibia 28.1025
rfoot -18.8474 -10.8301
rtoes -15.7476
lfemur -6.76641 5.79028 -22.9494
ltibia 18.986
lfoot -24.064 4.8122
ltoes -10.3339
734
root 14.0121 17.5979 13.4753 -177.716 31.8515 -178.272
lowerback -2.79192 -3.1247 2.90544
upperback -0.163132 -4.24084 -0.834997
thorax 1.12057 -2.10194 -2.62851
lowerneck -2.3166 1.51057 -7.36457
upperneck 4.50834 1.98979 9.49389
head 1.7022 1.10792 4.54686
rclavicle 1.24414e-013 2.78299e-015
rhumerus -29.5278 7.0109 -98.9845
rradius 34.85
rwrist 22.6869
rhand 11.5264 -16.6078
rfingers 7.12502
rthumb 36.5726 -42.7816
lclavicle 1.24414e-013 2.78299e-015
lhumerus -33.8015 12.2473 87.9022
lradius 29.4637
lwrist -17.1903
lhand -6.03322 11.8653
lfingers 7.12502
lthumb 19.8004 40.8768
rfemur -5.6963 4.64703 20.6051
rtibia 27.8795
rfoot -19.1808 -10.6888
rtoes -14.5327
lfemur -6.75645 5.72169 -22.8389
ltibia 19.1289
lfoot -24.3305 4.48267
ltoes -10.04
735
root 14.0115 17.6022 13.4376 -177.66 31.4726 -178.16
lowerback -2.7763 -3.13004 2.9353
upperback -0.142539 -4.24888 -0.836657
thorax 1.13018 -2.10549 -2.64682
lowerneck -2.3164 1.34896 -7.48214
upperneck 4.42559 1.77933 9.47096
head 1.69487 0.998604 4.55807
rclavicle 1.80413e-014 7.95139e-015
rhumerus -29.4979 6.66242 -98.9597
rradius 34.4196
rwrist 22.6138
rhand 11.9493 -16.7763
rfingers 7.12502
rthumb 36.9728 -42.8478
lclavicle 1.80413e-014 7.95139e-015
lhumerus -33.449 12.2854 87.8714
lradius 29.5848
lwrist -17.0046
lhand -5.88918 11.835
lfingers 7.12502
lthumb 19.9389 40.8321
rfemur -6.32165 5.24496 20.8104
rtibia 27.6914
rfoot -19.5537 -10.9572
rtoes -14.4858
lfemur -6.74615 5.75685 -22.7641
ltibia 19.181
lfoot -24.3231 4.14937
ltoes -10.2648
736
root 14.009 17.5998 13.4027 -177.634 31.1063 -178.144
lowerback -2.68986 -3.17575 2.79523
upperback -0.168845 -4.30383 -0.754791
thorax 1.06774 -2.13512 -2.48018
lowerneck -2.58603 1.30333 -7.40123
upperneck 4.98798 1.68527 9.74856
head 1.7398 0.984615 4.18139
rclavicle -2.00043e-014 -7.15625e-015
rhumerus -29.4819 6.22362 -98.7609
rradius 33.9053
rwrist 22.9897
rhand 12.3713 -16.85
rfingers 7.12502
rthumb 37.3718 -42.8174
lclavicle -2.00043e-014 -7.15625e-015
lhumerus -33.14 12.0705 88.1742
lradius 29.8096
lwrist -16.0514
lhand -6.22408 12.1192
lfingers 7.12502
lthumb 19.6169 41.1495
rfemur -7.04231 5.71818 20.8519
rtibia 27.5574
rfoot -19.8763 -10.8994
rtoes -13.5699
lfemur -6.62832 5.68244 -22.7906
ltibia 19.1713
lfoot -24.8469 3.85529
ltoes -9.42384
737
root 14.0099 17.5928 13.3659 -177.635 30.7913 -178.074
lowerback -2.64049 -3.13486 2.84232
upperback -0.161597 -4.24894 -0.801526
thorax 1.04404 -2.10782 -2.54986
lowerneck -2.63919 1.19475 -7.29689
upperneck 5.12188 1.53377 9.71643
head 1.80252 0.913915 4.15371
rclavicle 8.49416e-014 -1.59028e-015
rhumerus -29.4323 5.60107 -98.6988
rradius 33.3104
rwrist 23.1253
rhand 12.6199 -17.0794
rfingers 7.12502
rthumb 37.6068 -42.9845
lclavicle 8.49416e-014 -1.59028e-015
lhumerus -32.9352 12.3887 87.9654
lradius 29.9751
lwrist -16.5649
lhand -6.153 11.6643
lfingers 7.12502
lthumb 19.6853 40.6876
rfemur -7.67676 6.41291 20.9725
rtibia 27.4359
rfoot -20.0776 -11.0896
rtoes -13.5066
lfemur -6.3972 5.36212 -22.7642
ltibia 19.12
lfoot -25.1168 3.91954
ltoes -9.32743
738
root 14.0102 17.5888 13.3305 -177.673 30.4803 -178.081
lowerback -2.55453 -3.16285 2.608
upperback -0.123944 -4.27913 -0.715773
thorax 1.05636 -2.12364 -2.3289
lowerneck -2.94876 1.09764 -7.51803
upperneck 5.3557 1.41134 9.84078
head 1.93033 0.861336 4.23208
rclavicle 6.26032e-014 5.56597e-015
rhumerus -29.3397 5.25841 -98.5043
rradius 32.7447
rwrist 23.1911
rhand 12.7966 -17.1788
rfingers 7.12502
rthumb 37.7737 -43.0393
lclavicle 6.26032e-014 5.56597e-015
lhumerus -32.6117 12.685 88.0364
lradius 30.106
lwrist -16.501
lhand -6.20599 11.4491
lfingers 7.12502
lthumb 19.6343 40.4776
rfemur -8.32885 7.00566 20.9802
rtibia 27.3233
rfoot -20.1497 -10.9625
rtoes -12.6282
lfemur -6.1864 4.86471 -22.8112
ltibia 19.0542
lfoot -24.8728 4.08834
ltoes -9.63045
739
root 14.0122 17.5915 13.2929 -177.604 30.1496 -177.983
lowerback -2.46941 -3.17711 2.62612
upperback -0.176941 -4.29535 -0.731229
thorax 0.950872 -2.13383 -2.34762
lowerneck -3.08785 1.03035 -7.2723
upperneck 5.61096 1.31242 9.67253
head 2.0407 0.819037 4.14173
rclavicle 1.61093e-014 -4.77083e-015
rhumerus -29.4061 4.73527 -98.4215
rradius 32.2143
rwrist 23.2915
rhand 13.3411 -17.2348
rfingers 7.12502
rthumb 38.288 -42.9551
lclavicle 1.61093e-014 -4.77083e-015
lhumerus -32.4038 12.8387 87.9422
lradius 30.226
lwrist -16.665
lhand -6.37416 11.2889
lfingers 7.12502
lthumb 19.4726 40.3339
rfemur -9.03869 7.60466 21.0885
rtibia 27.1976
rfoot -20.082 -10.9407
rtoes -12.7228
lfemur -6.03937 4.44124 -22.75
ltibia 18.9551
lfoot -25.0446 4.15969
ltoes -9.42959
740
root 14.0141 17.5963 13.2622 -177.324 29.7767 -177.731
lowerback -2.45921 -3.20386 2.66203
upperback -0.263641 -4.33166 -0.580609
thorax 0.863028 -2.15396 -2.21037
lowerneck -3.32426 0.998265 -7.33164
upperneck 5.87744 1.27261 9.63011
head 2.16186 0.804538 4.14298
rclavicle 2.22716e-014 -3.18055e-015
rhumerus -29.3854 4.22306 -98.154
rradius 31.6796
rwrist 23.235
rhand 13.5594 -17.5899
rfingers 7.12502
rthumb 38.4939 -43.2531
lclavicle 2.22716e-014 -3.18055e-015
lhumerus -32.3306 13.1595 88.0001
lradius 30.5033
lwrist -17.0315
lhand -6.39033 10.8532
lfingers 7.12502
lthumb 19.4571 39.8997
rfemur -9.93203 8.28641 21.3077
rtibia 27.0669
rfoot -19.7963 -10.8177
rtoes -12.395
lfemur -6.08069 4.15728 -22.5473
ltibia 18.8468
lfoot -25.194 4.16169
ltoes -9.31322
741
root 14.0185 17.6 13.2231 -177.303 29.3893 -177.695
lowerback -2.46412 -3.17168 2.68994
upperback -0.246585 -4.2891 -0.658925
thorax 0.877653 -2.1322 -2.30589
lowerneck -3.39318 0.807287 -7.28114
upperneck 5.91674 1.01287 9.69927
head 2.20737 0.68175 4.15083
rclavicle -9.23883e-015 -5.1684e-015
rhumerus -29.353 3.33592 -97.9153
rradius 31.2606
rwrist 23.5813
rhand 14.0077 -17.4607
rfingers 7.12502
rthumb 38.9168 -43.0045
lclavicle -9.23883e-015 -5.1684e-015
lhumerus -32.0508 13.0178 87.9895
lradius 30.7355
lwrist -17.2331
lhand -6.11212 10.5961
lfingers 7.12502
lthumb 19.7246 39.6153
rfemur -10.6066 8.76184 21.2983
rtibia 26.9779
rfoot -19.8128 -10.2806
rtoes -12.2548
lfemur -5.8508 4.01229 -22.5408
ltibia 18.6397
lfoot -25.2805 3.92701
ltoes -9.73005
742
root 14.0223 17.6038 13.185 -177.268 29.1226 -177.625
lowerback -2.37039 -3.14098 2.68063
upperback -0.271947 -4.24456 -0.700128
thorax 0.799375 -2.11148 -2.33493
lowerneck -3.38555 0.656977 -7.19044
upperneck 5.80738 0.816526 9.53418
head 2.19255 0.57826 4.07887
rclavicle -5.43428e-014 -1.11319e-014
rhumerus -29.3965 2.67624 -97.7654
rradius 30.9089
rwrist 23.7561
rhand 14.2687 -17.3075
rfingers 7.12502
rthumb 39.1628 -42.7807
lclavicle -5.43428e-014 -1.11319e-014
lhumerus -31.8448 12.6278 88.1945
lradius 30.9963
lwrist -16.3347
lhand -6.7346 10.5653
lfingers 7.12502
lthumb 19.1261 39.6449
rfemur -11.321 9.36405 21.3114
rtibia 26.9073
rfoot -19.6693 -9.80988
rtoes -12.1449
lfemur -5.59015 3.622 -22.5179
ltibia 18.3807
lfoot -25.2987 4.35077
ltoes -9.83488
